<?xml version="1.0" encoding="UTF-8" standalone="no"?>
<svg
   id="hex-spiral"
   width="288.67514"
   height="323.71082"
   viewBox="-150 -150 173.20508 194.22649"
   version="1.1"
   sodipodi:docname="crop.svg"
   inkscape:version="1.3 (0e150ed6c4, 2023-07-21)"
   xmlns:inkscape="http://www.inkscape.org/namespaces/inkscape"
   xmlns:sodipodi="http://sodipodi.sourceforge.net/DTD/sodipodi-0.dtd"
   xmlns="http://www.w3.org/2000/svg"
   xmlns:svg="http://www.w3.org/2000/svg">
  <defs
     id="defs4" />
  <sodipodi:namedview
     id="namedview4"
     pagecolor="#ffffff"
     bordercolor="#000000"
     borderopacity="0.25"
     inkscape:showpageshadow="2"
     inkscape:pageopacity="0.0"
     inkscape:pagecheckerboard="0"
     inkscape:deskcolor="#d1d1d1"
     inkscape:zoom="1.59"
     inkscape:cx="144.33962"
     inkscape:cy="156.91824"
     inkscape:window-width="1920"
     inkscape:window-height="991"
     inkscape:window-x="-9"
     inkscape:window-y="-9"
     inkscape:window-maximized="1"
     inkscape:current-layer="hex-spiral" />
  <polygon
     points="81.60254,-47.113249 81.60254,-2.4382752 73.612842,-43.953968 -0.65741454,-65.393944 -56.961524,-32.886751 -56.961524,32.886751 -38.027756,43.818167 -64.951223,36.046032 -81.019965,-47.449599 -1.2789769e-13,-94.226497 "
     fill="#ff7f00"
     stroke="none"
     id="polygon1"
     transform="translate(-63.39746,-55.773503)" />
  <polygon
     points="4.8985872e-15,80 51.961524,30 3.6739404e-15,60 -69.282032,40 -86.60254,-50 -86.60254,50 "
     fill="#cc0000"
     stroke="none"
     id="polygon2"
     transform="translate(-63.39746,-55.773503)" />
  <polygon
     points="69.282032,40 51.961524,-30 51.961524,30 4.8985872e-15,80 -86.60254,50 6.123234e-15,100 "
     fill="#e6e6e6"
     stroke="none"
     id="polygon3"
     transform="translate(-63.39746,-55.773503)" />
  <polygon
     points="69.282032,-40 -6.4312526e-14,-60 51.961524,-30 69.282032,40 6.123234e-15,100 86.60254,50 "
     fill="#3333ff"
     stroke="none"
     id="polygon4"
     transform="translate(-63.39746,-55.773503)" />
</svg>
