<?xml version="1.0" encoding="UTF-8" standalone="no"?>
<svg
   version="1.1"
   viewBox="0.00 0.00 1024.00 1024.00"
   id="svg7"
   xmlns:xlink="http://www.w3.org/1999/xlink"
   xmlns="http://www.w3.org/2000/svg"
   xmlns:svg="http://www.w3.org/2000/svg">
  <defs
     id="defs7">
    <linearGradient
       id="linearGradient8">
      <stop
         style="stop-color:#eb5e0a;stop-opacity:1;"
         offset="0"
         id="stop8" />
      <stop
         style="stop-color:#f6b10c;stop-opacity:1;"
         offset="1"
         id="stop9" />
    </linearGradient>
    <linearGradient
       xlink:href="#linearGradient8"
       id="linearGradient9"
       x1="323.30063"
       y1="5.1522021"
       x2="323.30063"
       y2="873.2981"
       gradientUnits="userSpaceOnUse"
       gradientTransform="translate(-1.2880503,-2.5761006)" />
  </defs>
  <rect
     style="fill:url(#linearGradient9);fill-opacity:1;stroke-linecap:round;stroke-linejoin:round"
     id="rect8"
     width="1024"
     height="1024"
     x="0"
     y="0" />
  <path
     d="m 577.82031,137.91016 c -27.17994,-0.42 -49.55127,13.62973 -61.78125,37.42968 -15.14997,29.48994 -17.39834,62.79952 -11.06836,95.18946 0.48,2.45999 1.82264,8.45692 4.0293,17.99023 0.36,1.56666 1.05341,5.72095 2.08008,12.46094 0.91333,5.99999 0.93698,10.16667 0.0703,12.5 -1.66,4.46666 -5.62707,6.46047 -11.90039,5.98047 -11.39331,-0.87333 -17.47667,-1.328 -18.25,-1.36133 -11.59331,-0.54 -23.35265,0.40961 -35.2793,2.84961 -20.72662,4.23999 -41.0116,10.55166 -60.85156,18.93164 -23.49995,9.91998 -45.97903,21.32933 -67.20898,35.7793 -18.8533,12.84664 -37.62702,28.65949 -56.32032,47.43945 -17.95996,18.0533 -28.68326,28.74365 -32.16992,32.07031 -24.80995,23.71995 -53.76021,45.41012 -82.91015,63.33008 -17.82664,10.94664 -34.68678,21.0959 -50.580083,30.44922 -8.019983,4.71332 -15.228919,9.4149 -21.628906,14.10156 -3.299993,2.41 -7.520393,5.56969 -8.65039,8.17969 -0.399834,0.92702 -0.02185,2.00575 0.86914,2.48047 2.046663,1.08 4.364511,1.7951 6.951172,2.14843 4.409991,0.6 11.249386,1.21024 16.859375,0.49024 1.866663,-0.24 4.432559,-0.37992 7.699219,-0.41992 0.361685,-0.0126 0.50223,0.46502 0.191406,0.65039 -7.819984,4.91332 -14.596756,10.83931 -20.330078,17.77929 -1.259997,1.52667 -2.110782,3.12436 -2.550781,4.79102 -0.255596,0.97903 0.196556,2.00326 1.089843,2.46875 1.046665,0.56 2.311019,0.93753 3.791016,1.13086 6.173321,0.82 13.179547,0.45992 21.019527,-1.08008 4.96666,-0.97333 13.75894,-3.00008 26.37891,-6.08008 20.71996,-5.05999 42.34757,-8.50651 64.88086,-10.33984 14.08664,-1.15333 27.47351,-0.48976 40.16016,1.99023 4.67332,0.91334 9.06016,1.69318 13.16015,2.33985 26.05995,4.12666 44.33367,6.7007 54.82031,7.7207 23.79329,2.33333 39.90033,3.84263 48.32032,4.5293 4.53999,0.36 6.85984,8.00001 7.08984,11.75 0.0198,0.29206 -0.004,0.58883 -0.0703,0.88086 -1.24667,5.51332 -2.5831,10.02263 -4.00977,13.52929 -5.14665,12.67998 -10.85444,26.13584 -17.12109,40.36914 -1.28,2.9 -4.66683,9.10469 -10.16016,18.61133 -1.46999,2.53 -3.25867,6.57884 -3.13867,8.79883 0.13333,2.48 0.11279,4.75675 -0.0605,6.83008 0.92,5.57332 1.48279,11.0404 1.68946,16.40039 0.49333,13.03331 0.49023,27.03336 -0.01,42 -0.68,20.34663 -1.99589,49.43008 -3.94922,87.25 -0.34,6.55332 -0.97682,11.69016 -1.91015,15.41016 -1.08667,4.31999 -2.19985,8.76032 -3.33985,13.32031 -0.0603,0.24817 -0.28038,0.42212 -0.53125,0.41992 L 0,877.5 V 1024 H 1024 V 878.00977 l -0.4707,-0.0703 c -161.50635,0.0133 -323.01629,-0.0196 -484.5293,-0.0996 -4.03999,-0.01 -9.86923,-1.73976 -14.69922,-1.75976 -5.23999,-0.02 -17.47764,-0.40063 -36.71094,-1.14063 -4.99999,-0.19333 -8.9969,-0.54526 -11.99023,-1.05859 -9.94998,-1.73 -17.57977,-2.96127 -20.25977,-13.53125 -0.85999,-2.26666 -1.65729,-5.60001 -2.39062,-10 -9.62665,-57.77989 -15.9786,-97.47655 -19.0586,-119.08984 -0.57333,-4.00666 -0.51984,-9.11676 0.16016,-15.33008 0.4,-3.66 2.06898,-8.3197 1.70899,-11.67969 -0.23334,-2.18 -0.99884,-5.07613 -2.29883,-8.68945 -2.39,-6.63999 -1.48016,-15.8208 -0.41016,-23.30078 2,-13.93998 3.73566,-26.69003 5.20899,-38.25 0.85333,-6.65999 1.98396,-12.35962 3.39062,-17.09961 2.57,-8.65999 9.16041,-18.76962 18.40039,-20.84961 4.41333,-0.99333 8.80327,-2.28133 13.16992,-3.86133 31.47994,-11.34998 58.95966,-29.98942 82.59961,-52.85938 23.48662,-22.70662 41.37662,-48.66563 53.66992,-77.8789 11.00665,-26.15995 15.76596,-53.32673 14.2793,-81.5 -0.88,-16.68664 -3.15365,-33.58788 -6.82031,-50.70117 -4.41999,-20.6733 -9.05178,-42.60555 -13.89844,-65.79883 -1.11333,-5.34666 0.35683,-9.62342 4.41016,-12.83008 14.78997,-11.71998 36.44894,-8.41999 52.6289,-2 14.35998,5.69999 29.04105,11.34993 42.54102,16.91992 66.84987,27.57995 91.13925,37.54848 144.11914,59.89844 9.35998,3.95999 17.75994,7.50016 26.16992,8.91015 1.19333,0.2 3.1666,0.11357 5.91992,-0.25976 0.34155,-0.0444 0.64569,-0.23838 0.83008,-0.5293 0.78,-1.22666 0.7676,-2.3069 -0.0391,-3.24023 -3.21333,-3.68666 -7.57342,-6.96652 -13.08008,-9.83985 -16.90996,-8.81998 -34.49152,-16.61103 -54.52148,-26.54101 -7.76665,-3.84666 -25.70509,-12.73662 -53.81836,-26.66992 -13.07998,-6.48666 -29.32074,-14.99289 -48.72071,-25.51953 -14.45997,-7.83999 -28.18328,-16.41406 -41.16992,-25.72071 -1.51999,-1.09333 -3.32039,-2.50185 -5.40039,-4.22851 -4.36999,-3.63 -8.53898,-7.96103 -9.70898,-11.79102 -3.71,-12.20997 -8.76174,-23.68932 -16.26172,-33.5293 -14.13997,-18.53996 -35.29896,-28.22007 -59.12891,-28.58007 z M 415.25,603.55078 c 2.57999,-0.14 4.35938,0.8593 5.60937,3.2793 1.79333,3.46666 2.62047,6.93063 2.48047,10.39062 -0.29333,7.51999 -1.01659,14.93978 -2.16992,22.25977 -3.18666,20.32662 -5.16922,32.16001 -5.94922,35.5 -1.75999,7.57332 -3.78985,15.11249 -6.08984,22.61914 -1.37,4.48999 -0.53047,8.37954 1.01953,13.26953 3.49333,11.07331 5.38016,17.36443 5.66016,18.87109 7.25998,38.32993 12.19993,72.54962 19.16992,115.51954 1.10666,6.84665 1.76208,12.43 1.96875,16.75 0.0867,1.85999 -0.27961,6.9135 -1.09961,15.16015 -0.0357,0.33055 -0.31129,0.58082 -0.63867,0.58008 -12.21331,0.007 -21.75444,0.004 -28.6211,-0.01 -5.51999,-0.01 -10.90001,-1.58109 -16.75,-1.62109 -10.66664,-0.0933 -22.01747,-0.67162 -34.05078,-1.73828 -4.14666,-0.37333 -7.78154,-1.04505 -10.9082,-2.01172 -4.23333,-1.32 -6.53373,-4.18628 -6.90039,-8.59961 -0.48667,-5.88665 -0.67388,-11.63978 -0.56055,-17.25976 0.74,-38.65993 1.89737,-77.32985 3.4707,-116.00977 0.34,-8.20998 2.03884,-13.7608 5.04883,-22.30078 0.66,-1.87 0.82985,-3.21938 1.08985,-5.35938 0.067,-0.55164 0.0742,-1.1115 0.0215,-1.66992 -0.66,-6.75998 -0.1538,-13.3259 1.51953,-19.69922 0.54667,-2.06666 2.80597,-8.14382 6.7793,-18.23047 6.21999,-15.77996 10.20032,-25.9697 15.07031,-36.17968 3.46999,-7.27999 10.69947,-17.07095 17.93945,-20.71094 1.55334,-0.77333 4.40413,-1.30628 8.55079,-1.59961 8.77331,-0.61333 14.88651,-1.01255 18.33984,-1.19922 z"
     style="fill:#0b0c06;fill-opacity:1"
     id="path8" />
  <path
     fill="#ffc40d"
     d="   M 579.41 775.09   Q 572.66 765.30 566.71 750.32   C 559.81 732.94 556.97 715.87 556.84 697.80   Q 556.59 664.07 571.18 636.02   Q 588.00 603.66 617.32 584.06   Q 637.94 570.27 664.39 563.90   Q 680.17 560.10 698.46 560.87   Q 717.47 561.67 732.42 565.55   Q 735.59 566.38 748.11 571.02   C 764.79 577.21 781.13 588.95 793.19 600.84   C 813.01 620.36 827.31 647.26 831.33 674.87   Q 833.87 692.30 832.35 712.98   C 830.70 735.33 823.36 755.08 811.02 773.61   Q 802.96 785.72 798.05 791.28   Q 788.20 802.45 778.74 808.98   Q 775.89 810.94 767.17 816.14   C 745.67 828.96 721.16 835.44 696.03 835.70   C 683.79 835.83 671.58 833.21 660.01 830.98   Q 651.63 829.37 639.90 824.07   Q 627.86 818.63 621.57 814.66   C 611.61 808.37 600.52 801.06 592.36 791.06   C 588.03 785.75 583.20 780.60 579.41 775.09   Z"
     id="path3" />
</svg>
